<svg width="32" height="32" viewBox="0 0 73 48" fill="none" xmlns="http://www.w3.org/2000/svg">
  <path fill-rule="evenodd" clip-rule="evenodd" d="M36.5112 40.1259L20.437 23.9893L24.477 19.9336L20.5659 15.9857L12.5933 23.9893L36.5112 48L48.9323 35.5093L45.0211 31.583L36.5112 40.1259Z" fill="#FDB811"/>
  <path fill-rule="evenodd" clip-rule="evenodd" d="M52.4352 16.0071L36.4899 0L24.0688 12.4907L28.0015 16.417L36.4899 7.87412L45.0213 16.417L48.5241 19.9334L52.5641 24.0107L48.5241 28.0664L52.4352 32.0142L60.4078 24.0107L52.4352 16.0071Z" fill="#FDB811"/>
  <path fill-rule="evenodd" clip-rule="evenodd" d="M55.228 6.1481L48.9315 12.469L52.4343 15.9854L55.228 13.2025L65.9728 23.9889L55.228 34.7754L52.4343 31.9925L48.5232 28.0446L44.4832 23.9889L48.5232 19.9332L45.0204 16.3952L37.4561 23.9889L45.0204 31.5826L48.9315 35.5089L55.228 41.8298L72.9999 23.9889L55.228 6.1481Z" fill="#003A78"/>
  <path fill-rule="evenodd" clip-rule="evenodd" d="M24.0684 12.469L17.7719 6.1481L0 23.9889L17.7719 41.8298L24.0684 35.5089L20.5441 31.9925L17.7719 34.7754L7.02712 23.9889L17.7719 13.2025L20.5441 15.9854L24.4767 19.9332L28.5168 23.9889L24.4767 28.0446L27.9795 31.5826L35.5439 23.9889L27.9795 16.3952L24.0684 12.469Z" fill="#003A78"/>
</svg>
